#Comment line ignore any data following # character 
#Hierarchical Translation and Rotation (.htr) file 
[Header]	
#Header keywords are followed by a single value 
FileType HTR		#Single word string
DataType HTRS		#Translation followed by rotation and scale data
FileVersion 1		#integer
NumSegments 64		#integer
NumFrames 3		#integer
DataFrameRate 30		#integer, data frame rate in this file
EulerRotationOrder ZYX
CalibrationUnits mm
RotationUnits Degrees
GlobalAxisofGravity Y
BoneLengthAxis Y
ScaleFactor 1.00
[SegmentNames&Hierarchy]
#CHILD	PARENT
Pinger_Root GLOBAL
Pelvis Pinger_Root
L_Hip Pelvis
R_Hip Pelvis
Rear_Leg01 Pelvis
Spine1 Pelvis
L_Leg01 L_Hip
L_Leg02 L_Leg01
L_Leg03 L_Leg02
L_Foot L_Leg03
L_Toe1_01 L_Foot
L_Toe2_01 L_Foot
L_Toe3_01 L_Foot
planeAlignerLeft L_Foot
L_Toe1_02 L_Toe1_01
L_Toe1_03 L_Toe1_02
L_Toe2_02 L_Toe2_01
L_Toe2_03 L_Toe2_02
L_Toe3_02 L_Toe3_01
L_Toe3_03 L_Toe3_02
planeLockWeightLeft planeAlignerLeft
R_Leg01 R_Hip
R_Leg02 R_Leg01
R_Leg03 R_Leg02
R_Foot R_Leg03
planeAlignerRight R_Foot
R_Toe1_01 R_Foot
R_Toe2_01 R_Foot
R_Toe3_01 R_Foot
planeLockWeightRight planeAlignerRight
R_Toe1_02 R_Toe1_01
R_Toe1_03 R_Toe1_02
R_Toe2_02 R_Toe2_01
R_Toe2_03 R_Toe2_02
R_Toe3_02 R_Toe3_01
R_Toe3_03 R_Toe3_02
Rear_Leg02 Rear_Leg01
Rear_Leg03 Rear_Leg02
Rear_Leg04 Rear_Leg03
Rear_Foot Rear_Leg04
planeAlignerCenter Rear_Foot
Rear_Toe1_01 Rear_Foot
Rear_Toe2_01 Rear_Foot
Rear_Toe3_01 Rear_Foot
planeLockWeightCenter planeAlignerCenter
Rear_Toe1_02 Rear_Toe1_01
Rear_Toe1_03 Rear_Toe1_02
Rear_Toe2_02 Rear_Toe2_01
Rear_Toe2_03 Rear_Toe2_02
Rear_Toe3_02 Rear_Toe3_01
Rear_Toe3_03 Rear_Toe3_02
Back_Bone Spine1
Head Spine1
Motor_Bone Back_Bone
Ping_Mechanism Back_Bone
BN_LookIK Head
bottomMouth Head
L_Mouth01 Head
L_mouthFront Head
mouthGun Head
R_Mouth01 Head
R_mouthFront Head
TopMouth Head
weapon_bone Head
[BasePosition]
#SegmentName Tx, Ty, Tz, Rx, Ry, Rz, BoneLength
Pinger_Root 0.000000 0.000000 0.000000 -90.000000 0.000000 0.000000 10.000000 
Pelvis 0.000000 0.000000 0.000000 0.000000 0.000000 0.000000 10.000000 
L_Hip 0.000000 0.000000 0.000000 0.000000 0.000000 0.000000 10.000000 
R_Hip 0.000000 0.000000 0.000000 0.000000 0.000000 0.000000 10.000000 
Rear_Leg01 0.000000 0.000000 0.000000 0.000000 0.000000 0.000000 10.000000 
Spine1 0.000000 0.000000 0.000000 0.000000 0.000000 0.000000 10.000000 
L_Leg01 0.000000 0.000000 0.000000 0.000000 0.000000 0.000000 10.000000 
L_Leg02 0.000000 0.000000 0.000000 0.000000 0.000000 0.000000 10.000000 
L_Leg03 0.000000 0.000000 0.000000 0.000000 0.000000 0.000000 10.000000 
L_Foot 0.000000 0.000000 0.000000 0.000000 0.000000 0.000000 10.000000 
L_Toe1_01 0.000000 0.000000 0.000000 0.000000 0.000000 0.000000 10.000000 
L_Toe2_01 0.000000 0.000000 0.000000 0.000000 0.000000 0.000000 10.000000 
L_Toe3_01 0.000000 0.000000 0.000000 0.000000 0.000000 0.000000 10.000000 
planeAlignerLeft 0.000000 0.000000 0.000000 0.000000 0.000000 0.000000 10.000000 
L_Toe1_02 0.000000 0.000000 0.000000 0.000000 0.000000 0.000000 10.000000 
L_Toe1_03 0.000000 0.000000 0.000000 0.000000 0.000000 0.000000 10.000000 
L_Toe2_02 0.000000 0.000000 0.000000 0.000000 0.000000 0.000000 10.000000 
L_Toe2_03 0.000000 0.000000 0.000000 0.000000 0.000000 0.000000 10.000000 
L_Toe3_02 0.000000 0.000000 0.000000 0.000000 0.000000 0.000000 10.000000 
L_Toe3_03 0.000000 0.000000 0.000000 0.000000 0.000000 0.000000 10.000000 
planeLockWeightLeft 0.000000 0.000000 0.000000 0.000000 0.000000 0.000000 10.000000 
R_Leg01 0.000000 0.000000 0.000000 0.000000 0.000000 0.000000 10.000000 
R_Leg02 0.000000 0.000000 0.000000 0.000000 0.000000 0.000000 10.000000 
R_Leg03 0.000000 0.000000 0.000000 0.000000 0.000000 0.000000 10.000000 
R_Foot 0.000000 0.000000 0.000000 0.000000 0.000000 0.000000 10.000000 
planeAlignerRight 0.000000 0.000000 0.000000 0.000000 0.000000 0.000000 10.000000 
R_Toe1_01 0.000000 0.000000 0.000000 0.000000 0.000000 0.000000 10.000000 
R_Toe2_01 0.000000 0.000000 0.000000 0.000000 0.000000 0.000000 10.000000 
R_Toe3_01 0.000000 0.000000 0.000000 0.000000 0.000000 0.000000 10.000000 
planeLockWeightRight 0.000000 0.000000 0.000000 0.000000 0.000000 0.000000 10.000000 
R_Toe1_02 0.000000 0.000000 0.000000 0.000000 0.000000 0.000000 10.000000 
R_Toe1_03 0.000000 0.000000 0.000000 0.000000 0.000000 0.000000 10.000000 
R_Toe2_02 0.000000 0.000000 0.000000 0.000000 0.000000 0.000000 10.000000 
R_Toe2_03 0.000000 0.000000 0.000000 0.000000 0.000000 0.000000 10.000000 
R_Toe3_02 0.000000 0.000000 0.000000 0.000000 0.000000 0.000000 10.000000 
R_Toe3_03 0.000000 0.000000 0.000000 0.000000 0.000000 0.000000 10.000000 
Rear_Leg02 0.000000 0.000000 0.000000 0.000000 0.000000 0.000000 10.000000 
Rear_Leg03 0.000000 0.000000 0.000000 0.000000 0.000000 0.000000 10.000000 
Rear_Leg04 0.000000 0.000000 0.000000 0.000000 0.000000 0.000000 10.000000 
Rear_Foot 0.000000 0.000000 0.000000 0.000000 0.000000 0.000000 10.000000 
planeAlignerCenter 0.000000 0.000000 0.000000 0.000000 0.000000 0.000000 10.000000 
Rear_Toe1_01 0.000000 0.000000 0.000000 0.000000 0.000000 0.000000 10.000000 
Rear_Toe2_01 0.000000 0.000000 0.000000 0.000000 0.000000 0.000000 10.000000 
Rear_Toe3_01 0.000000 0.000000 0.000000 0.000000 0.000000 0.000000 10.000000 
planeLockWeightCenter 0.000000 0.000000 0.000000 0.000000 0.000000 0.000000 10.000000 
Rear_Toe1_02 0.000000 0.000000 0.000000 0.000000 0.000000 0.000000 10.000000 
Rear_Toe1_03 0.000000 0.000000 0.000000 0.000000 0.000000 0.000000 10.000000 
Rear_Toe2_02 0.000000 0.000000 0.000000 0.000000 0.000000 0.000000 10.000000 
Rear_Toe2_03 0.000000 0.000000 0.000000 0.000000 0.000000 0.000000 10.000000 
Rear_Toe3_02 0.000000 0.000000 0.000000 0.000000 0.000000 0.000000 10.000000 
Rear_Toe3_03 0.000000 0.000000 0.000000 0.000000 0.000000 0.000000 10.000000 
Back_Bone 0.000000 0.000000 0.000000 0.000000 0.000000 0.000000 10.000000 
Head 0.000000 0.000000 0.000000 0.000000 0.000000 0.000000 10.000000 
Motor_Bone 0.000000 0.000000 0.000000 0.000000 0.000000 0.000000 10.000000 
Ping_Mechanism 0.000000 0.000000 0.000000 0.000000 0.000000 0.000000 10.000000 
BN_LookIK 0.000000 0.000000 0.000000 0.000000 0.000000 0.000000 10.000000 
bottomMouth 0.000000 0.000000 0.000000 0.000000 0.000000 0.000000 10.000000 
L_Mouth01 0.000000 0.000000 0.000000 0.000000 0.000000 0.000000 10.000000 
L_mouthFront 0.000000 0.000000 0.000000 0.000000 0.000000 0.000000 10.000000 
mouthGun 0.000000 0.000000 0.000000 0.000000 0.000000 0.000000 10.000000 
R_Mouth01 0.000000 0.000000 0.000000 0.000000 0.000000 0.000000 10.000000 
R_mouthFront 0.000000 0.000000 0.000000 0.000000 0.000000 0.000000 10.000000 
TopMouth 0.000000 0.000000 0.000000 0.000000 0.000000 0.000000 10.000000 
weapon_bone 0.000000 0.000000 0.000000 0.000000 0.000000 0.000000 10.000000 
#Beginning of Data. Separated by tabs
#Fr	Tx	Ty	Tz	Rx	Ry	Rz	SF
[Pinger_Root]
57 0.000000 0.000000 0.000000 -0.000075 -0.000000 -0.000020 0.000000
58 0.000000 0.000000 0.000000 -0.000075 -0.000000 -0.000020 0.000000
59 0.000000 0.000000 0.000000 -0.000075 -0.000000 -0.000020 0.000000
[Pelvis]
57 755.432739 904.985596 3753.384033 164.804031 -80.705505 -172.230667 3934.154297
58 756.617249 907.044556 3749.842285 164.724701 -80.758713 -172.143127 3931.477539
59 757.801758 909.103455 3746.300293 164.644394 -80.811874 -172.054626 3928.803467
[L_Hip]
57 5.766392 125.831482 872.656799 160.158676 -45.484894 122.312202 881.701050
58 5.766392 125.831482 872.656799 160.158691 -45.484894 122.312187 881.701050
59 5.766392 125.831482 872.656799 160.158676 -45.484894 122.312202 881.701050
[R_Hip]
57 5.765438 125.836372 -872.654907 -14.550797 58.354454 63.014240 881.699829
58 5.765438 125.836372 -872.654907 -14.536893 58.357006 63.030666 881.699829
59 5.765438 125.836372 -872.654907 -14.522997 58.359554 63.047073 881.699829
[Rear_Leg01]
57 -192.298416 -925.602966 -0.001907 161.231934 -15.606972 -143.839859 945.367432
58 -192.298416 -925.602966 -0.001907 161.243118 -15.578060 -143.783264 945.367432
59 -192.298416 -925.602966 -0.001907 161.254349 -15.549160 -143.726700 945.367432
[Spine1]
57 290.604584 5.007505 0.000477 10.500391 3.399660 25.206388 290.647736
58 290.604584 5.007505 0.000477 10.470630 3.352939 25.204123 290.647736
59 290.604584 5.007505 0.000477 10.440869 3.306216 25.201878 290.647736
[L_Leg01]
57 761.932007 -0.002384 -0.069261 27.850107 -23.808422 26.535000 761.932068
58 761.932007 -0.002384 -0.069261 27.841856 -23.846432 26.624346 761.932068
59 761.932007 -0.002384 -0.069261 27.754719 -23.852606 26.549934 761.932068
[L_Leg02]
57 1441.140503 -0.000954 -0.000715 5.442863 -0.995879 -164.813065 1441.140503
58 1441.140503 -0.000954 -0.000715 5.459611 -0.997695 -164.958069 1441.140503
59 1441.140503 -0.000954 -0.000715 5.457902 -0.997875 -164.949753 1441.140503
[L_Leg03]
57 1686.963989 -0.000715 -0.000954 -0.004567 0.000853 111.155556 1686.963989
58 1686.963989 -0.000715 -0.000954 -0.004567 0.000853 111.152824 1686.963989
59 1686.963989 -0.000715 -0.000954 -0.004567 0.000853 111.150101 1686.963989
[L_Foot]
57 3041.570068 -30.715107 11.297464 -3.511043 10.757423 60.617992 3041.746094
58 3041.570068 -30.715107 11.297464 -3.521387 10.755642 60.647148 3041.746094
59 3041.570068 -30.715107 11.297464 -3.531735 10.753870 60.676308 3041.746094
[L_Toe1_01]
57 -188.216690 -224.732346 -21.137953 94.342751 -5.489704 179.521759 293.899567
58 -188.216690 -224.732346 -21.137953 94.342751 -5.489613 179.521530 293.899567
59 -188.216690 -224.732346 -21.137953 94.342766 -5.489522 179.521286 293.899567
[L_Toe2_01]
57 200.746536 -219.926590 148.838394 -93.852180 -26.507952 -43.403889 332.896027
58 200.746536 -219.926590 148.838394 -93.852394 -26.507984 -43.403481 332.896027
59 200.746536 -219.926590 148.838394 -93.852608 -26.508020 -43.403080 332.896027
[L_Toe3_01]
57 188.832520 -219.859131 -191.078659 -98.833832 17.497812 -58.478714 347.140900
58 188.832520 -219.859131 -191.078659 -98.834236 17.497271 -58.480339 347.140900
59 188.832520 -219.859131 -191.078659 -98.834618 17.496731 -58.481960 347.140900
[planeAlignerLeft]
57 0.812531 -811.448792 -0.314951 0.000000 -90.000000 -90.001900 811.449280
58 0.812531 -811.448792 -0.314951 0.000000 -90.000000 -90.001900 811.449280
59 0.812531 -811.448792 -0.314951 0.000000 -90.000000 -90.001900 811.449280
[L_Toe1_02]
57 413.761139 0.000477 0.000000 0.001387 -25.608475 0.001387 413.761139
58 413.761139 0.000477 0.000000 0.001387 -25.610655 0.001387 413.761139
59 413.761139 0.000477 0.000000 0.001387 -25.612822 0.001387 413.761139
[L_Toe1_03]
57 464.317322 0.000358 -0.000089 0.004923 62.413750 0.004923 464.317322
58 464.317322 0.000358 -0.000089 0.004922 62.409271 0.004922 464.317322
59 464.317322 0.000358 -0.000089 0.004921 62.404816 0.004921 464.317322
[L_Toe2_02]
57 342.235809 -0.000477 0.000238 0.001183 -75.502029 0.001183 342.235809
58 342.235809 -0.000477 0.000238 0.001183 -75.500053 0.001183 342.235809
59 342.235809 -0.000477 0.000238 0.001183 -75.498108 0.001183 342.235809
[L_Toe2_03]
57 420.210846 -0.000715 0.000000 -179.987350 85.428253 -179.983841 420.210846
58 420.210846 -0.000715 0.000000 -179.987335 85.429832 -179.983826 420.210846
59 420.210846 -0.000715 0.000000 -179.987335 85.431465 -179.983826 420.210846
[L_Toe3_02]
57 329.270111 0.000954 0.000000 0.001176 -82.560196 0.001176 329.270111
58 329.270111 0.000954 0.000000 0.001176 -82.557632 0.001176 329.270111
59 329.270111 0.000954 0.000000 0.001176 -82.555023 0.001176 329.270111
[L_Toe3_03]
57 439.137451 -0.001907 0.000954 -179.998703 68.566521 -179.995132 439.137451
58 439.137451 -0.001907 0.000954 -179.998703 68.567886 -179.995132 439.137451
59 439.137451 -0.001907 0.000954 -179.998703 68.569229 -179.995132 439.137451
[planeLockWeightLeft]
57 -0.000954 0.000238 -0.000305 -0.011826 -0.004376 0.005620 0.001029
58 -0.000954 0.000238 -0.000305 -0.011826 -0.004376 0.005620 0.001029
59 -0.000954 0.000238 -0.000305 -0.011826 -0.004376 0.005620 0.001029
[R_Leg01]
57 761.455627 -0.001907 -0.000358 141.943054 -1.603407 96.534172 761.455688
58 761.455627 -0.001907 -0.000358 141.933807 -1.696643 96.286140 761.455688
59 761.455627 -0.001907 -0.000358 141.924957 -1.789913 96.038094 761.455688
[R_Leg02]
57 1441.140625 0.000000 -0.000238 -1.381761 -0.211557 -105.266579 1441.140625
58 1441.140625 0.000000 -0.000238 -1.403938 -0.223833 -105.897163 1441.140625
59 1441.140625 0.000000 -0.000238 -1.425979 -0.236353 -106.527740 1441.140625
[R_Leg03]
57 1686.963989 0.000954 0.001431 0.083319 -0.048271 133.467606 1686.963989
58 1686.963989 0.000954 0.001431 0.084153 -0.048804 133.688843 1686.963989
59 1686.963989 0.000954 0.001431 0.084985 -0.049340 133.910065 1686.963989
[R_Foot]
57 3041.560059 -30.531288 -11.204481 -13.671394 -5.184449 56.022274 3041.734131
58 3041.560059 -30.531288 -11.204481 -13.686450 -5.193821 56.246857 3041.734131
59 3041.560059 -30.531288 -11.204481 -13.701538 -5.203132 56.471436 3041.734131
[planeAlignerRight]
57 -0.635147 -812.270569 -0.364304 0.000000 -89.960434 -90.005180 812.270874
58 -0.635147 -812.270569 -0.364304 0.000000 -89.960434 -90.005180 812.270874
59 -0.635147 -812.270569 -0.364304 0.000000 -89.960434 -90.005180 812.270874
[R_Toe1_01]
57 -188.383347 -224.864899 21.052242 77.190086 -3.259334 172.272491 294.101532
58 -188.383347 -224.864899 21.052242 77.190041 -3.259218 172.272934 294.101532
59 -188.383347 -224.864899 21.052242 77.189995 -3.259103 172.273361 294.101532
[R_Toe2_01]
57 200.637817 -220.002121 -148.787384 -84.886307 32.506981 -46.553257 332.857574
58 200.637817 -220.002121 -148.787384 -84.886620 32.506969 -46.553841 332.857574
59 200.637817 -220.002121 -148.787384 -84.886932 32.506962 -46.554420 332.857574
[R_Toe3_01]
57 188.606735 -220.092957 191.126343 -74.389648 -14.504160 -66.122345 347.192566
58 188.606735 -220.092957 191.126343 -74.389648 -14.503936 -66.122826 347.192566
59 188.606735 -220.092957 191.126343 -74.389648 -14.503717 -66.123291 347.192566
[planeLockWeightRight]
57 -0.000477 0.000000 0.000000 -0.011823 -0.004379 -0.000027 0.000477
58 -0.000477 0.000000 0.000000 -0.011823 -0.004379 -0.000027 0.000477
59 -0.000477 0.000000 0.000000 -0.011823 -0.004379 -0.000027 0.000477
[R_Toe1_02]
57 413.762085 0.000477 -0.000119 0.001470 -15.938474 0.001470 413.762085
58 413.762085 0.000477 -0.000119 0.001470 -15.939109 0.001470 413.762085
59 413.762085 0.000477 -0.000119 0.001470 -15.939742 0.001470 413.762085
[R_Toe1_03]
57 464.317810 0.000000 0.001088 -179.996872 76.467674 -179.993362 464.317810
58 464.317810 0.000000 0.001088 -179.996872 76.468102 -179.993362 464.317810
59 464.317810 0.000000 0.001088 -179.996872 76.468521 -179.993362 464.317810
[R_Toe2_02]
57 342.234741 -0.000954 0.000238 -0.002332 -79.743256 -0.002332 342.234741
58 342.234741 -0.000954 0.000238 -0.002332 -79.742783 -0.002332 342.234741
59 342.234741 -0.000954 0.000238 -0.002332 -79.742226 -0.002332 342.234741
[R_Toe2_03]
57 420.210846 0.000715 -0.000268 -179.995560 64.988510 -179.999130 420.210846
58 420.210846 0.000715 -0.000268 -179.995560 64.988960 -179.999130 420.210846
59 420.210846 0.000715 -0.000268 -179.995560 64.989365 -179.999130 420.210846
[R_Toe3_02]
57 329.270355 -0.000477 -0.000954 0.001175 -83.707451 0.001175 329.270355
58 329.270355 -0.000477 -0.000954 0.001175 -83.707016 0.001175 329.270355
59 329.270355 -0.000477 -0.000954 0.001175 -83.706551 0.001175 329.270355
[R_Toe3_03]
57 439.137939 0.000238 0.001431 -179.994354 60.953339 -179.987122 439.137939
58 439.137939 0.000238 0.001431 -179.994354 60.953831 -179.987122 439.137939
59 439.137939 0.000238 0.001431 -179.994354 60.954384 -179.987122 439.137939
[Rear_Leg02]
57 1162.777710 -0.029802 0.005960 1.773147 -2.379355 -149.009811 1162.777710
58 1162.777710 -0.029802 0.005960 1.774992 -2.378136 -149.056778 1162.777710
59 1162.777710 -0.029802 0.005960 1.776835 -2.376915 -149.103745 1162.777710
[Rear_Leg03]
57 607.192505 -0.013351 -0.073195 0.010292 -0.005497 72.570709 607.192505
58 607.192505 -0.013351 -0.073195 0.010292 -0.005499 72.584000 607.192505
59 607.192505 -0.013351 -0.073195 0.010291 -0.005500 72.597298 607.192505
[Rear_Leg04]
57 995.874512 -0.020504 -0.011921 -0.041628 -0.015367 76.838150 995.874573
58 995.874512 -0.020504 -0.011921 -0.041629 -0.015363 76.850143 995.874573
59 995.874512 -0.020504 -0.011921 -0.041631 -0.015358 76.862144 995.874573
[Rear_Foot]
57 3096.176270 -0.067472 -0.041425 -171.931046 73.532898 25.357637 3096.176270
58 3096.176270 -0.067472 -0.041425 -171.946182 73.511909 25.386705 3096.176270
59 3096.176270 -0.067472 -0.041425 -171.961380 73.490967 25.415762 3096.176270
[planeAlignerCenter]
57 0.350077 0.966311 -838.790894 0.000009 0.000003 -179.999985 838.791565
58 0.350077 0.966311 -838.790894 0.000009 0.000003 -179.999985 838.791565
59 0.350077 0.966311 -838.790894 0.000009 0.000003 -179.999985 838.791565
[Rear_Toe1_01]
57 0.653352 83.966492 -371.173737 0.290629 41.137337 90.406410 380.553192
58 0.653352 83.966492 -371.173737 0.290650 41.137363 90.406410 380.553192
59 0.653352 83.966492 -371.173737 0.290672 41.137383 90.406418 380.553192
[Rear_Toe2_01]
57 178.200760 -294.826019 -362.060547 -7.260899 33.853073 -66.229050 499.765686
58 178.200760 -294.826019 -362.060547 -7.260915 33.853096 -66.229057 499.765686
59 178.200760 -294.826019 -362.060547 -7.260938 33.853123 -66.229088 499.765686
[Rear_Toe3_01]
57 -153.359680 -308.780914 -362.060852 3.322300 32.989574 -112.582558 499.952881
58 -153.359680 -308.780914 -362.060852 3.322300 32.989574 -112.582558 499.952881
59 -153.359680 -308.780914 -362.060852 3.322300 32.989574 -112.582558 499.952881
[planeLockWeightCenter]
57 -0.000062 0.000238 0.000000 -0.011814 -0.004373 -0.000015 0.000246
58 -0.000062 0.000238 0.000000 -0.011814 -0.004373 -0.000015 0.000246
59 -0.000062 0.000238 0.000000 -0.011814 -0.004373 -0.000015 0.000246
[Rear_Toe1_02]
57 379.707825 0.194073 0.000477 -0.000261 -31.944153 0.006945 379.707855
58 379.707825 0.194073 0.000477 -0.000261 -31.944153 0.006945 379.707855
59 379.707825 0.194073 0.000477 -0.000261 -31.944153 0.006945 379.707855
[Rear_Toe1_03]
57 500.129700 0.165701 0.000119 0.000045 53.309292 0.007413 500.129761
58 500.129700 0.165701 0.000119 0.000045 53.309292 0.007413 500.129761
59 500.129700 0.165701 0.000119 0.000045 53.309292 0.007413 500.129761
[Rear_Toe2_02]
57 340.494507 0.000238 -0.000954 0.001191 -70.483063 0.001191 340.494507
58 340.494507 0.000238 -0.000954 0.001191 -70.483078 0.001191 340.494507
59 340.494507 0.000238 -0.000954 0.001191 -70.483078 0.001191 340.494507
[Rear_Toe2_03]
57 433.103577 0.000000 0.000238 0.007024 70.764099 0.007024 433.103546
58 433.103577 0.000000 0.000238 0.007024 70.764046 0.007024 433.103546
59 433.103577 0.000000 0.000238 0.007024 70.764008 0.007024 433.103546
[Rear_Toe3_02]
57 340.494141 -0.000358 -0.000477 0.003445 -67.923424 -0.002144 340.494171
58 340.494141 -0.000358 -0.000477 0.003485 -67.923424 -0.002203 340.494171
59 340.494141 -0.000358 -0.000477 0.003525 -67.923424 -0.002263 340.494171
[Rear_Toe3_03]
57 433.103577 0.001431 -0.000238 0.005868 66.926758 0.005868 433.103546
58 433.103577 0.001431 -0.000238 0.005868 66.926720 0.005868 433.103546
59 433.103577 0.001431 -0.000238 0.005868 66.926666 0.005868 433.103546
[Back_Bone]
57 1312.175781 -701.934692 0.000954 1.471187 0.097033 -90.548798 1488.125488
58 1312.175781 -701.934692 0.000954 1.470912 0.088416 -90.504326 1488.125488
59 1312.175781 -701.934692 0.000954 1.470628 0.079800 -90.459839 1488.125488
[Head]
57 1406.159424 809.709290 0.001431 -9.235857 9.975281 16.530348 1622.625488
58 1406.159424 809.709290 0.001431 -9.237907 9.974886 17.303572 1622.625488
59 1406.159424 809.709290 0.001431 -9.237518 9.976765 17.777878 1622.625488
[Motor_Bone]
57 1158.364380 -417.834747 0.000477 -0.000105 0.000046 -105.985291 1231.419434
58 1158.364380 -417.834747 0.000477 -0.000105 0.000046 -105.985291 1231.419434
59 1158.364380 -417.834747 0.000477 -0.000105 0.000046 -105.985291 1231.419434
[Ping_Mechanism]
57 1210.757813 -430.223572 -45.735256 0.000103 -0.000053 82.120995 1285.736694
58 1210.668579 -430.239075 -45.249645 0.000103 -0.000053 82.120995 1285.640503
59 1210.579102 -430.254608 -44.764034 0.000103 -0.000053 82.120995 1285.544556
[BN_LookIK]
57 193.241119 1380.371704 -0.002861 0.000000 89.965736 -31.038179 1393.832153
58 193.241119 1380.371704 -0.002861 0.000000 89.965736 -31.038179 1393.832153
59 193.241119 1380.371704 -0.002861 0.000000 89.965736 -31.038179 1393.832153
[bottomMouth]
57 -435.092926 615.759399 -0.000954 -0.000022 0.000016 73.527184 753.966492
58 -435.092926 615.759399 -0.000954 -0.000022 0.000016 73.527184 753.966492
59 -435.092926 615.759399 -0.000954 -0.000022 0.000016 73.527184 753.966492
[L_Mouth01]
57 554.440979 7.658243 838.222046 150.204178 23.759130 109.605339 1005.027161
58 554.440979 7.658243 838.222046 150.204178 23.759130 109.605339 1005.027161
59 554.440979 7.658243 838.222046 150.204178 23.759130 109.605339 1005.027161
[L_mouthFront]
57 551.629089 934.514771 339.150421 0.000081 2.804060 79.119301 1136.941284
58 551.629089 934.514771 339.150421 0.000081 2.804060 79.119301 1136.941284
59 551.629089 934.514771 339.150421 0.000081 2.804060 79.119301 1136.941284
[mouthGun]
57 55.332661 1627.420898 0.000000 0.000023 0.000009 -11.038128 1628.361328
58 55.332661 1627.420898 0.000000 0.000023 0.000009 -11.038128 1628.361328
59 55.332661 1627.420898 0.000000 0.000023 0.000009 -11.038128 1628.361328
[R_Mouth01]
57 554.442383 7.659197 -838.223938 29.795891 -23.759109 109.605331 1005.029541
58 554.442383 7.659197 -838.223938 29.795891 -23.759109 109.605331 1005.029541
59 554.442383 7.659197 -838.223938 29.795891 -23.759109 109.605331 1005.029541
[R_mouthFront]
57 551.629089 934.514282 -339.151367 0.000029 -2.803930 79.119133 1136.941162
58 551.629089 934.514282 -339.151367 0.000029 -2.803930 79.119133 1136.941162
59 551.629089 934.514282 -339.151367 0.000029 -2.803930 79.119133 1136.941162
[TopMouth]
57 461.269867 -56.106091 -0.008583 -0.000059 -0.000268 92.025169 464.669525
58 461.269867 -56.106091 -0.008583 -0.000059 -0.000268 92.025169 464.669525
59 461.269867 -56.106091 -0.008583 -0.000059 -0.000268 92.025169 464.669525
[weapon_bone]
57 -987.239868 1448.372803 0.001431 0.000000 89.965736 -31.038221 1752.833740
58 -987.239868 1448.372803 0.001431 0.000000 89.965736 -31.038221 1752.833740
59 -987.239868 1448.372803 0.001431 0.000000 89.965736 -31.038221 1752.833740
